<?xml version="1.0" encoding="UTF-8"?><svg id="Layer_1" xmlns="http://www.w3.org/2000/svg" viewBox="0 0 173.43 19.61"><rect width="173.43" height="19.61" style="fill:#197d3e;"/><path d="M77.9,19.61l.03-.85-.2.85h-.52c-2.32-6.23-3.16-12.92-3.33-19.61h3.85c.38,5.43.92,10.9.22,16.32.01.22.24.63.38.79.73.83,7.14,1.71,8.76,2.14.44.12.89.24,1.33.36h-10.52Z" style="fill:#1b723a;"/><path d="M173.43,4.4v8.11l-3.26,7.1h-5.02c.06-.3.12-.6.18-.9.12-.57.91-3.06.74-3.34-.34-.19-.68-.38-1.02-.57-.29-.18-.58-.36-.87-.53-.5-.31-.99-.62-1.49-.93-.18-.12-.37-.23-.55-.35h0c-.55-.36-1.1-.71-1.65-1.06-.28-.19-.57-.37-.85-.54-.3-.19-.6-.38-.9-.56-4.93-3-10.7-5.39-13.71-10.83h8.3c-.02.47.29.56.58.78,2.92,2.13,5.11,3.57,7.51,6.07.18.19.37.39.56.6.16.17.32.35.48.54,1.27,1.45,2.54,2.98,3.38,4.75.16.31.29.63.41.96.02.05.04.1.06.15.36.09.4-.11.57-.35.5-.68.96-2.06,1.49-2.91,1.38-2.21,3.21-4.38,5.07-6.19Z" style="fill:#1b723a;"/><path d="M119.85,19.61h-.51c-4.49-2.95-10.01-3.84-13.95-7.67-1.29-1.24-2.3-2.91-3.65-4.05-2.68-2.25-7.26-3.23-6.99-7.89h2.43c1.88,1.39,3.79,2.73,5.57,4.27,1.52,1.3,2.85,2.86,4.36,4.15,3.99,3.41,7.94,4.38,11.35,8.96.49.65,1.09,1.42,1.39,2.23Z" style="fill:#1b723a;"/><path d="M28.07,0c-2.36,1.82-5.28,2.82-8.2,2.99-2.76.16-5.33-.43-8.11-.22-3.65.27-7.09,1.42-10.64,2.13-.16-.12,2.71-2.58,2.94-2.76C5.07,1.35,6.2.79,7.2,0h20.88Z" style="fill:#1b723a;"/><path d="M130.84,12.89l-.06,6.72h-1.92c-1.88-6.33-2.38-13.29-.67-19.61h2.03l.62,12.89Z" style="fill:#1b723a;"/><path d="M57.05,17.37v2.24h-.41l-.72-1.47c-2.57-4.28-6.09-8.09-7.08-13.23-.31-1.61-.35-3.28-.5-4.91h3.44c-.04,2.84.57,5.64,1.59,8.25.81,2.07,3.68,7.14,3.68,9.12Z" style="fill:#1b723a;"/><path d="M9.63,9.06c-1.8,4.31-4.43,8.15-8.19,10.55H0v-3.85c.48-.42.96-.84,1.46-1.23,1.95-1.5,4.7-3.55,6.77-4.81.4-.25.93-.62,1.4-.66Z" style="fill:#1b723a;"/><path d="M63.13,0c.23,3.73.75,7.45.62,11.2-.05,1.33-.34,2.92-.41,4.26-.02.45.09,4.16-.1,4.16-1.66-4.08-2.38-8.44-2.13-12.9C61.24,4.47,61.87,2.26,61.92,0h1.22Z" style="fill:#1b723a;"/><path d="M41.45,0c.11,1,.9,2.01,1.46,2.84.67,1.01,1.48,2.31,2.49,2.92.33-.2-.07-.48-.18-.66C44.27,3.49,43.25,1.88,42.87,0h2.03c-.22,2.57.43,4.91,1.66,7.1l1.68,2.28c-2.4-1.78-4.56-3.89-6.93-5.72C39.83,2.52,37.76,1.72,36.79,0h4.66Z" style="fill:#1b723a;"/><path d="M121.3,0c-2.71,3.3-6.02,6.65-10.34,6.93L117.25,0h4.05Z" style="fill:#1b723a;"/><path d="M168.52,0l1.62,4.37c.02.17-.18.12-.31.11-1.62-.09-4.94-2.73-6.3-3.83C163.3.45,162.95.46,163.05,0h5.47Z" style="fill:#1b723a;"/><path d="M173.43,17.37v2.24h-2.01c.6-.82,1.27-1.58,2.01-2.24Z" style="fill:#1b723a;"/><path d="M135.69,0l-3.85,6.39C131.36,4.31,131.74,2.12,131.84,0h3.85Z" style="fill:#1b723a;"/><path d="M108.94,0c.63,2.13.77,5.19-.61,7.03C108.19,4.5,106.87,2.15,105.69,0h3.24Z" style="fill:#1b723a;"/><path d="M1.52,2.03c-.5,1.75-.95,3.54-1.52,5.28V2.81c.32-.27.65-.53.97-.72.17-.1.44-.36.55-.06Z" style="fill:#1b723a;"/><path d="M114.21,0c-.49,2.75-2.59,5.16-4.76,6.61l1.67-3.36L111.78,0h2.43Z" style="fill:#1b723a;"/><path d="M81.78,0c-.44.95-1.1,1.82-1.82,2.56L80.16,0h1.62Z" style="fill:#1b723a;"/><path d="M70.02,0l.71,1.28C69.81,1.06,68.88.73,68.2,0h1.82Z" style="fill:#1b723a;"/><path d="M26.46,19.61h-4.17l-2.53-5.33c2.56.86,4.92,2.87,6.7,5.33Z" style="fill:#1b723a;"/><path d="M102.65,19.61h-2.88c-2.89-3.37-6.04-6.48-9.49-9.25l-9.92-7.16c3.25-1.54,7.04.07,9.92,1.83,5.43,3.32,9.63,8.61,12.37,14.58Z" style="fill:#1b723a;"/><path d="M146.03,4.26c-.54,3.39-1.89,7.27-3.54,10.24-1.01,1.82-2.39,3.42-3.63,5.11h-4.95c1.59-2.74,3.82-4.61,6.14-7.46,2.08-2.54,3.62-5.62,5.98-7.89Z" style="fill:#1b723a;"/><path d="M38.77,19.61h-5.6c-4.12-3.66-8.53-7.03-11.38-11.93.38-.32,7.83,3.3,8.78,3.87,3.17,1.93,5.99,4.76,8.2,8.06Z" style="fill:#1b723a;"/><path d="M154.94,12.15c-.44,2.42-1.31,5-2.33,7.46h-4.34c.25-.4.52-.79.8-1.17,1.65-2.26,3.65-4.68,5.87-6.29Z" style="fill:#1b723a;"/><path d="M125.78,19.61h-2.27c0-.11,0-.22.01-.33.12-2.05.45-4.66,1.33-6.49.7,2.16.64,4.49.91,6.71,0,.03.01.07.02.11Z" style="fill:#1b723a;"/><path d="M50.03,19.61h-5.45c-2.68-1.98-5.15-4.15-6.78-6.29l-2.83-4.58c5.82,2.34,10.9,6.12,15.06,10.87Z" style="fill:#1b723a;"/><path d="M145.42,2.13l-1.92,1.5c-2.36,3-5.38,6.25-7.37,9.52-1.05,1.73-1.52,3.87-3.08,5.18.21-1.38.51-2.75.87-4.1.69-2.61,2.46-7.29,4.2-9.22,1.91-2.11,4.52-3.1,7.29-2.88Z" style="fill:#1b723a;"/><path d="M71.65,18.33c-.16.45-.39.88-.66,1.28h-4.03c1.37-.8,2.92-1.28,4.69-1.28Z" style="fill:#1b723a;"/><path d="M162.16,19.61h-2.92c-.89-2.61-1.56-5.3-1.66-8.1,3.19,1.7,4,4.79,4.58,8.1Z" style="fill:#1b723a;"/><path d="M123.12,14.71c-3.77-.96-7.24-2.84-10.67-4.65l-2.5-1.74c4.71-.68,12.32.34,13.17,6.39Z" style="fill:#1b723a;"/><path d="M35.37,1.71c.25.26-1.17,1.79-1.42,2.03-2.5,2.38-4.99,2.75-8.21,2.02-.28-.06-.51.03-.7-.32,2.64-2.64,6.9-2.94,10.33-3.73Z" style="fill:#1b723a;"/><path d="M12.95,19.61h-2.61c-.64-.84-1.17-1.75-1.52-2.77,1.46.78,2.86,1.68,4.13,2.77Z" style="fill:#1b723a;"/></svg>