<?xml version="1.0" encoding="utf-8"?>
<!-- Generator: Adobe Illustrator 29.6.1, SVG Export Plug-In . SVG Version: 9.03 Build 0)  -->
<svg version="1.1" id="Layer_1" xmlns="http://www.w3.org/2000/svg" xmlns:xlink="http://www.w3.org/1999/xlink" x="0px" y="0px"
	 viewBox="0 0 173.43 19.61" style="enable-background:new 0 0 173.43 19.61;" xml:space="preserve">
<style type="text/css">
	.st0{fill:#F47637;}
	.st1{fill:#EA6C34;}
</style>
<rect y="0" class="st0" width="173.43" height="19.61"/>
<path class="st1" d="M133.04,19.61h-0.86c-1.54-6.58-5.86-14.29-12.8-16.2c-10.82-2.99-17.56,8.44-9.54,16.2h-3.01
	C97.97,8.54,110.24-4.1,122.3,1.56c-0.45-0.5-0.9-1.02-1.34-1.56h1.01c0.47,0.84,1,1.59,1.6,2.23c1.02,1.07,2.77,1.81,3.64,2.8
	C130.44,8.7,132.15,14.91,133.04,19.61z"/>
<path class="st1" d="M53.67,0h4.32c-1.57,0.9-2.94,2.29-3.8,4.13c-2.42,5.14-1.26,10.59,1.08,15.48h-3.44
	c-2.22-4.92-3.02-9.84-1.07-15.03C51.45,2.73,52.46,1.2,53.67,0z"/>
<path class="st1" d="M70.3,8.43c-0.96-0.23-0.02-1.89-0.1-2.68C69.94,3.04,68.71,1.13,67.02,0h1.96C70.43,1.97,71.07,4.8,70.3,8.43z
	"/>
<path class="st1" d="M40.47,5.88c-0.66,1.95-3.36,1.91-3.68,0.62c-0.34-1.37,1.82-0.33,2.12-1.32c0.57-1.87-1.56-2.94-3.12-1.93
	c-2.78,5.92,2.1,10.95,3.58,16.36h-1.29c-1.26-3.06-2.88-6.14-4.56-8.98c-1.29-2.17-3.51-6.9-6.07-7.27
	c-1.52-0.23-3.14,1.24-1.84,2.72l0.87-1.51l1.3,1.5l-1.61,1.88c-3.16,0.12-4.11-4.42-1.31-5.63c2.02-0.87,3.21-0.03,5.05,0.53
	C29.87,1.9,29.69,0.95,29.6,0h1.83c0.27,2.15,0.65,4.04,1.49,6.29l1.11-3.4C36.39-0.91,41.92,1.55,40.47,5.88z"/>
<path class="st1" d="M162.29,6.85c-0.92,1.26-3.6,0.97-3.03-0.99c3.27,1.21,1.64-4.61-1.11-2.61c-3.95,2.88,2.71,12.95,3.69,16.36
	h-1.29c-0.73-1.36-1.33-2.81-2.08-4.16c-1.17-2.09-5.3-9.48-6.67-10.73c-0.99-0.9-3.85-1.55-4.53-0.54
	c-0.83,1.22,1.59,3.68,1.25,0.82l1.24,0.71c-0.11,4.84-6.42,1.31-3.83-2.22c1.77-2.42,4.63-1.69,6.45,0.22
	c-0.15-0.58-0.43-2.16-0.51-3.71h1.89l1.21,5.86c1.08-0.79,0.76-2.72,1.84-3.73C160.11-0.94,164.72,3.56,162.29,6.85L162.29,6.85z"
	/>
<path class="st1" d="M79.33,0h1.38c-0.51,1.42,0.11,2.96,3.3,2.8l0.48-2.53c1.01,0.22,0.22,2.72-0.29,3.04
	C81.66,4.92,79.17,2.58,79.33,0z"/>
<path class="st1" d="M87.94,0h1.82c-0.88,3.28-4.12,6.57-5.63,9.16c-1.78,3.05-3.2,6.88-3.08,10.45h-1.29
	c-0.1-3.46,0.78-7.24,2.34-10.33c1.47-2.91,4.77-5.59,3.65-9.28h1.99l0.18,0.27C87.92,0.27,87.94,0,87.94,0z"/>
<path class="st1" d="M-0.6,1.13C6.85,4.1,9.69,12.15,10.57,19.61H9.71C8.44,13.39,5.42,6.96-0.6,4.14V1.13z"/>
<path class="st1" d="M50.1,19.61l-7.74-7.95l-1.93-3.23c5.05,1.72,8.69,6.26,10.52,11.18H50.1L50.1,19.61z"/>
<path class="st1" d="M173.43,19.18v0.43h-0.86c-3.19-3.69-7.42-6.4-9.88-10.74C167.93,9.87,170.88,14.98,173.43,19.18z"/>
<path class="st1" d="M133.47,19.61c-0.19-3.51,0.21-7.67,2.8-10.31c0.38-0.39,4.48-3.18,4.07-1.94c-2.46,3.88-5.56,7.63-6.44,12.25
	H133.47L133.47,19.61z"/>
<path class="st1" d="M96.94,19.61H93.5c2.98-2.81,6.24-5.48,8.38-9.03C101.88,14.03,99.49,17.44,96.94,19.61z"/>
<path class="st1" d="M148.94,19.61h-2.15l-3.86-7.73C146.14,13.4,148.25,16.12,148.94,19.61z"/>
<path class="st1" d="M82.33,19.61c-0.1-3.24,3.61-7.1,6.87-6.23l-5.58,6.23H82.33z"/>
<path class="st1" d="M26.47,19.61h-2.15c-0.74-2.07-2.02-3.88-2.93-5.87c-0.18-0.4-0.93-1.11-0.28-1.43
	c2.94,1.09,5.1,4.16,5.37,7.31L26.47,19.61z"/>
<path class="st1" d="M173.43,17.46c-1.97-4-2.31-9.42,0-13.32V17.46z"/>
<path class="st1" d="M59.13,19.61h-1.72c-1.36-2.9,0.11-5.3,2.57-6.88l-0.86,6.88H59.13z"/>
<path class="st1" d="M135.19,19.61c0.51-2.18,2.9-4.39,4.94-5.16c0.1,1.77-1.89,3.42-2.36,5.16H135.19z"/>
<path class="st1" d="M12.72,19.61c0.94-2.41,2.81-4.43,5.37-5.16l-2.79,5.16H12.72z"/>
<path class="st1" d="M-0.6,16.6c1.51-2.03,2.9-3.47,5.59-2.57c-1.25,2.2-3.62,2.96-5.59,4.29C-0.6,18.32-0.6,16.6-0.6,16.6z"/>
<path class="st1" d="M-0.6,9.73c1.92-2.56,3.58-2.29,2.24,1.17c-0.35,0.92-1.61,2.28-2.24,3.13V9.73z"/>
<path class="st1" d="M119.72,19.61H118c2.39-2.31,2.05-4.91,0.86-7.73C121.47,13.59,121.24,17.17,119.72,19.61z"/>
<path class="st1" d="M153.24,19.61c-0.08-5.19,3.07-4.91,2.15,0H153.24z"/>
<path class="st1" d="M32.92,19.61h-2.15c-0.12-1.44,0.54-2.84,1.5-3.86c1.12,0.99,1.45,2.55,0.64,3.86H32.92z"/>
<path class="st1" d="M145.07,19.61h-2.15l-0.86-3.01C142.24,16.38,145.38,18.62,145.07,19.61L145.07,19.61z"/>
<path class="st1" d="M141.6,0h1.65c-0.22,1.09-0.74,2.09-1.61,2.85C141.84,1.85,141.81,0.89,141.6,0z"/>
<path class="st1" d="M19.41,0h1.65c-0.22,0.89-0.59,1.82-1.04,2.85L19.41,0z"/>
<path class="st1" d="M4.55,3.71C3.4,2.68,2.38,1.41,1.58,0h1.91L4.55,3.71z"/>
<path class="st1" d="M8.85,9.29L7.12,5.66C6.45,3.9,6.14,1.91,6.32,0h2.46C8.54,3.12,8.18,6.22,8.85,9.29z"/>
<path class="st1" d="M126.59,3.71c-1.22-1.05-2.24-2.31-3.02-3.71h1.9C125.47,0,126.59,3.71,126.59,3.71z"/>
<path class="st1" d="M130.89,0c-0.2,3.12-0.63,6.21,0,9.29l-1.72-3.64c-0.83-1.86-1-3.78-0.72-5.65C128.45,0,130.89,0,130.89,0z"/>
<path class="st1" d="M14.44-1.02L14.17,0l-3.6,13.59L9.76,8.61c0.25-3.14,1.2-6.38,3.45-8.61C13.58-0.37,13.99-0.71,14.44-1.02z"/>
<path class="st1" d="M11.86,19.18c-0.64,0.07-0.77-1.56-0.77-1.93c0.07-4.8,2.58-8.97,7.21-10.53c0.3,0.31-4.04,6.41-4.52,7.3
	c-0.87,1.61-1.77,3.31-1.93,5.16H11.86z"/>
<path class="st1" d="M136.36,0c-0.94,4.72-3.39,9.15-3.32,14.02c-0.64-0.2-0.8-2.21-0.85-2.8c-0.35-4.46-0.08-8.43,3.47-11.22
	H136.36L136.36,0z"/>
<path class="st1" d="M109.84,0.27c-2.34,0.23-4.93,0.31-7.15-0.27h7.07C109.79,0.08,109.82,0.16,109.84,0.27z"/>
<path class="st1" d="M105.54,2.43l-4.37,2.28c-3.02,0.91-7.4,0.1-8.51-3.14C96.84,3.02,101.2,2.8,105.54,2.43L105.54,2.43z"/>
<path class="st1" d="M171.28,12.3l-6.87-11.6C169.73,2.02,171.11,7.43,171.28,12.3z"/>
<path class="st1" d="M91.79,10.58l12.02-5.15c0.19,0.81-0.45,1.02-0.85,1.51c-3.01,3.59-6.53,5.32-11.17,3.65V10.58z"/>
<path class="st1" d="M48.81,11.87L42.37,0.71c4.84,1.03,6.9,6.68,6.44,11.17L48.81,11.87z"/>
<path class="st1" d="M50.97,0c-0.09,2.03-0.99,3.8-1.3,5.86L48.63,0H50.97z"/>
<path class="st1" d="M173.06,0c-0.06,2.06-0.65,4.64-1.77,5.86L170.64,0H173.06z"/>
<path class="st1" d="M90.07,7.58c-1.62,3.12-4.82,4.95-7.3,7.3C83.59,11.13,85.75,7.44,90.07,7.58z"/>
<path class="st1" d="M74.16,14.45c-1.12,0.14-0.68-0.01-0.86-0.62c-0.85-2.75,0.02-5.67-0.84-8.4c2.98,2.55,3.68,5.51,1.71,9.02
	L74.16,14.45z"/>
<path class="st1" d="M78.03,9.72c-1.07-0.14-2.12-1.79-2.75-2.61c-0.91-1.2-1.53-2.6-2.4-3.82c3.32,0.33,5.8,3.03,5.15,6.44V9.72z"
	/>
<path class="st1" d="M69.88,17.89l-0.35-3.54l2.06-5.06c0.13,3.13,1.49,6.5-1.71,8.59V17.89z"/>
<path class="st1" d="M58.7,8.44l-0.78,2.87l-2.65,4.43C54.2,12.57,55.18,9.21,58.7,8.44z"/>
<path class="st1" d="M29.47,18.32l-1.8-2.71c-0.67-0.94-0.76-4.56,0.3-5.02C30.13,13.13,29.74,15.24,29.47,18.32z"/>
<path class="st1" d="M60.84,5.86c-1.05-0.79-5.81,2.41-6.01,2.15C54.67,4.79,59.7,2.05,60.84,5.86z"/>
<path class="st1" d="M151.51,17.89l-2.06-3.75l0.35-3.12C152.42,12.44,152.31,15.35,151.51,17.89L151.51,17.89z"/>
<path class="st1" d="M75.48,0c-1.25,1.01-2.99,0.92-4.53,0H75.48z"/>
<path class="st1" d="M26.04,14.45l-3.16-3l-0.27-2.58C25.8,9.24,26.15,11.66,26.04,14.45z"/>
<path class="st1" d="M148.51,14.45c-1.87-1.37-4.08-2.94-3.86-5.59C147.44,9.58,148.56,11.62,148.51,14.45z"/>
<path class="st1" d="M64.72,8.01L66.65,2C68.63,4.64,68.03,7.25,64.72,8.01z"/>
<path class="st1" d="M59.13,1.56c0.37-1.03,2.72-1.01,3.56-0.77c2.08,0.61,1.98,4.11,0.74,3.57c-1.19-1.21-2.46-2.7-4.29-2.8
	L59.13,1.56z"/>
<path class="st1" d="M65.58,16.6c-0.43-2.55,1.17-3.5,3-4.73C68.88,14.42,68.09,16,65.58,16.6z"/>
<path class="st1" d="M68.15,7.58c0.38,4.74-5.6,3.68-2.56,1.09C66.26,8.1,67.37,8.03,68.15,7.58z"/>
<path class="st1" d="M127.45,14.03c-1.32,2.24-3.97,2.92-6.01,4.29C121.93,15.2,124.21,12.86,127.45,14.03z"/>
<path class="st1" d="M124.45,8.01l-0.63,3.02l-2.37,3.85C120.54,11.99,121.02,8.61,124.45,8.01z"/>
<path class="st1" d="M119.71,11.44c-0.76-0.61-2.08-2.36-2.14-3.25c-0.07-1.15,0.71-2.05,1.5-2.76
	C120.59,7.4,120.05,9.2,119.71,11.44z"/>
<path class="st1" d="M115.42,11.02c-1.08,1.67-2.88,1.92-4.72,1.71C110.64,9.76,113.39,10.6,115.42,11.02z"/>
<path class="st1" d="M113.58,7.71c0.1,0.08,1.51,1.94,1.41,2.02c-2.24,0.29-4.01-0.04-4.3-2.57c0.96-0.01,2.07-0.1,2.88,0.56
	L113.58,7.71z"/>
<path class="st1" d="M117.57,13.17c-1.05,1.28-2.64,2.51-4.3,1.71C113.22,12.05,115.59,12.72,117.57,13.17z"/>
<path class="st1" d="M116.71,9.29c-1.98-0.22-3.48-1.94-2.57-3.86C116.51,5.11,116.03,7.86,116.71,9.29z"/>
<polygon class="st1" points="118,15.32 117.14,17.28 115.49,16.96 115.46,15.35 "/>
</svg>
