<?xml version="1.0" encoding="UTF-8"?>
<svg id="Layer_1" data-name="Layer 1" xmlns="http://www.w3.org/2000/svg" viewBox="0 0 428 428">
  <defs>
    <style>
      .cls-1 {
        fill: none;
        stroke: #000;
        stroke-width: 16px;
      }
    </style>
  </defs>
  <g id="Page-1">
    <g id="Group">
      <path id="RO-MAN-P" class="cls-1" d="M52.75,102h249.43c14.22,0,27.15,1.82,38.79,5.47,11.64,3.65,21.55,8.95,29.74,15.91,8.19,6.96,14.49,15.52,18.91,25.69,4.42,10.16,6.63,21.65,6.63,34.47,0,14.36-2.42,26.4-7.27,36.79-4.85,10.38-11.58,19.11-20.2,26.18s-18.91,12.37-30.87,15.91c-11.96,3.54-24.95,5.3-38.95,5.3h-31.03v66.29h-58.37"/>
      <path id="RO-MAN-P-2" data-name="RO-MAN-P" class="cls-1" d="M31.75,102h101.33c17.46,0,32.23,2.21,44.3,6.63,12.07,4.42,21.88,10.61,29.43,18.56,13.37,13.26,20.05,31.26,20.05,54.02,0,18.56-4.2,33.36-12.61,45.07s-17.02,23.49-31.25,29.68l51.3,78.04h-72.44l-39.64-65.98h-34.49v65.98H31.75V102Z"/>
    </g>
  </g>
</svg>